PathFileType	4	(X/Y/Z)	C:/Users/opensim2020/Desktop/walking_exp_matlab/subject03_walking09_straight_01.trc	
DataRate	CameraRate	NumFrames	NumMarkers	Units	OrigDataRate	OrigDataStartFrame	OrigNumFrames	
100.00	100.00	4	47	mm	100.00	933	493	
Frame#	Time	LFHD			RFHD			LBHD			RBHD			C7			T10			CLAV			STRN			RBAK			LSHO			LUPA			LELB			LFRM			LWRA			LWRB			LFIN			RSHO			RUPA			RELB			RFRM			RWRA			RWRB			RFIN			LASI			RASI			LPSI			RPSI			LTHI			LKNE			LTIB			LANK			LHEE			LTOE			RTHI			RKNE			RTIB			RANK			RHEE			RTOE			*39			*40			*41			*42			*43			*44			*45			*46			
		X1	Y1	Z1	X2	Y2	Z2	X3	Y3	Z3	X4	Y4	Z4	X5	Y5	Z5	X6	Y6	Z6	X7	Y7	Z7	X8	Y8	Z8	X9	Y9	Z9	X10	Y10	Z10	X11	Y11	Z11	X12	Y12	Z12	X13	Y13	Z13	X14	Y14	Z14	X15	Y15	Z15	X16	Y16	Z16	X17	Y17	Z17	X18	Y18	Z18	X19	Y19	Z19	X20	Y20	Z20	X21	Y21	Z21	X22	Y22	Z22	X23	Y23	Z23	X24	Y24	Z24	X25	Y25	Z25	X26	Y26	Z26	X27	Y27	Z27	X28	Y28	Z28	X29	Y29	Z29	X30	Y30	Z30	X31	Y31	Z31	X32	Y32	Z32	X33	Y33	Z33	X34	Y34	Z34	X35	Y35	Z35	X36	Y36	Z36	X37	Y37	Z37	X38	Y38	Z38	X39	Y39	Z39	X40	Y40	Z40	X41	Y41	Z41	X42	Y42	Z42	X43	Y43	Z43	X44	Y44	Z44	X45	Y45	Z45	X46	Y46	Z46	X47	Y47	Z47	

309	3.080	-1094.11926	228.61879	1606.28003	-964.58466	197.83359	1611.98682	-1119.20691	102.30904	1565.24731	-990.73389	77.02369	1570.20056	-1063.33545	56.63234	1407.29993	-1060.51587	10.46581	1096.28943	-1045.24109	174.76067	1326.65381	-1047.38501	212.93448	1160.60693	-975.06244	-14.75628	1234.02478	-1204.05115	153.45230	1365.46912	-1280.19836	182.99503	1176.57495	-1292.21851	221.57225	1060.59229	-1277.52722	290.46024	951.92609	-1233.92944	345.26511	852.06433	-1287.63086	332.94507	846.44800	-1269.05591	380.54709	780.05585	-892.90680	109.03796	1349.86548	-821.54828	98.41578	1127.85791	-806.53027	113.87833	1016.33356	-805.13721	141.37852	882.31354	-838.27106	186.38826	792.45380	-800.29285	149.35266	781.94403	-809.55676	179.97986	714.05859	-1166.06665	178.95732	929.37744	-928.32336	167.06703	926.57849	-1122.57825	14.62606	956.21368	-973.72284	8.28528	955.77014	-1200.04077	87.11915	632.93182	-1160.44971	58.48967	457.47128	-1159.36658	-29.01965	279.41513	-1113.40271	-82.78667	74.30569	-1075.89612	-127.14569	44.47756	-1088.55078	66.30455	28.80779	-876.85669	164.59087	634.58759	-906.65149	246.62889	472.92401	-894.22870	270.38089	291.22101	-924.15881	338.95218	82.13536	-980.77185	312.98932	41.14574	-928.73010	486.56036	75.16559	-1063.48926	138.00989	1670.60522																					 
310	3.090	-1093.16614	235.17221	1605.82117	-963.66846	204.04401	1611.33228	-1118.40857	108.88863	1564.55859	-989.91071	83.59162	1569.50745	-1062.28223	63.42338	1406.54626	-1059.28711	17.47500	1095.62512	-1044.41357	181.63234	1326.00671	-1046.79578	219.92873	1159.99390	-974.03082	-7.65449	1233.19470	-1203.22534	160.01088	1364.84741	-1279.18933	189.21486	1175.79053	-1290.86584	227.89064	1059.79749	-1275.76929	297.12607	951.35260	-1231.60327	352.20691	851.90948	-1285.27869	339.98242	845.94659	-1266.28040	387.72531	779.81927	-891.93323	116.05035	1349.10632	-820.73083	104.83041	1127.01440	-805.66461	119.91817	1015.49561	-804.15155	146.88474	881.39374	-837.09766	191.67442	791.34839	-799.31183	154.40028	780.96606	-808.42413	184.81053	712.93146	-1166.11389	184.77679	928.55713	-927.76996	174.35934	925.74261	-1121.39124	21.26872	955.67792	-972.46869	15.47975	955.20013	-1199.82214	92.32024	632.74243	-1160.70874	63.00813	457.22037	-1159.66333	-26.38746	279.94324	-1113.82275	-82.21459	75.17397	-1076.49329	-126.73879	45.76662	-1088.70557	66.40753	28.77174	-876.93524	172.30394	633.91418	-906.49561	254.17152	472.39810	-893.84479	278.46371	290.86932	-923.86353	347.19565	81.73193	-980.29694	321.31808	40.45582	-928.70306	494.82022	75.30581	-1061.86475	143.45757	1669.16504																					 
311	3.100	-1092.29138	241.72849	1605.39661	-962.85065	210.77370	1610.97595	-1117.51929	115.49755	1563.80139	-989.01288	90.14210	1568.76233	-1061.26746	70.30241	1405.87744	-1058.00830	24.53367	1094.95374	-1043.58069	188.57951	1325.42603	-1046.13123	227.10507	1159.47620	-972.95416	-0.43208	1232.37134	-1202.39783	166.65791	1364.25110	-1278.12964	195.47386	1174.96533	-1289.55725	234.14397	1058.90808	-1273.94983	303.59576	950.71851	-1229.29871	358.97595	851.66064	-1283.03564	346.69498	845.35779	-1263.53137	394.58066	779.37036	-890.93506	123.17881	1348.43420	-819.88739	111.41730	1126.27039	-804.72339	126.11288	1014.76007	-803.10730	152.47342	880.51788	-835.91357	196.72505	790.10486	-798.12415	159.54375	780.08105	-807.12604	189.58241	711.85486	-1165.54724	191.14532	928.06989	-927.24146	181.88867	925.03467	-1120.06860	27.91919	955.17462	-971.18317	22.89008	954.66608	-1199.59436	97.62745	632.55988	-1160.93347	67.67994	457.02585	-1159.89600	-23.60099	280.43533	-1114.19568	-81.58333	76.21049	-1076.78040	-126.65213	47.39617	-1088.84265	66.53700	28.68262	-876.72113	179.80818	633.36121	-906.20258	262.02576	471.99606	-893.34686	286.12823	290.34488	-923.79059	353.93338	80.99316	-980.15314	327.87115	39.63094	-929.02985	501.54291	74.35810	-1060.99426	149.92554	1668.57190																					 
312	3.110	-1091.45166	248.27603	1605.00305	-961.94922	217.15506	1610.46313	-1116.36890	122.17007	1563.26282	-988.07904	96.84200	1568.21826	-1060.12732	77.22126	1405.22449	-1056.70654	31.76607	1094.32153	-1042.63464	195.63301	1324.90405	-1045.40405	234.24533	1158.93298	-971.85748	6.92080	1231.54028	-1201.47839	173.41287	1363.67505	-1276.98108	201.81491	1174.19238	-1288.18164	240.31192	1058.01758	-1272.16821	309.87878	949.99109	-1227.03479	365.33286	851.12964	-1280.62244	353.15445	844.63422	-1260.81360	401.03659	778.70044	-889.85449	130.31203	1347.82544	-818.95050	118.10559	1125.65063	-803.70667	132.48961	1014.07501	-801.93915	158.17239	879.69922	-834.59106	202.04889	789.04156	-796.80359	164.72025	779.22699	-805.71600	194.38786	710.91766	-1164.76807	197.61118	927.64343	-926.73193	189.54268	924.46283	-1118.72095	34.68722	954.71393	-969.80115	30.36160	954.17548	-1199.33276	103.07217	632.36847	-1161.16479	72.41411	456.79407	-1160.15271	-20.83528	281.06927	-1114.59290	-80.88846	77.23029	-1077.15088	-126.21280	48.90022	-1088.88733	66.74462	28.62324	-876.17389	187.86969	633.15228	-905.82855	269.94427	471.68179	-893.00946	293.20941	289.58994	-923.79657	359.33865	79.77576	-980.21252	332.66840	38.63145	-929.69995	506.82462	72.43990	-1060.20105	156.34235	1668.01611																					 
